<svg width="500" height="500" viewBox="0 0 500 500" fill="none" xmlns="http://www.w3.org/2000/svg">
<rect x="50" y="50" width="400" height="400" rx="100" fill="#F46234"/>
<path d="M281.271 126H206.941C203.656 126 200.505 127.305 198.181 129.628C195.858 131.952 194.553 135.103 194.553 138.388V163.165C194.553 170.598 199.508 175.553 206.941 175.553H281.271C288.704 175.553 293.659 170.598 293.659 163.165V138.388C293.659 130.955 288.704 126 281.271 126Z" stroke="white" stroke-width="26" stroke-linecap="round" stroke-linejoin="round"/>
<path d="M194.553 150.777H169.776C163.205 150.777 156.903 153.387 152.257 158.034C147.61 162.68 145 168.982 145 175.553V348.989C145 355.56 147.61 361.862 152.257 366.508C156.903 371.155 163.205 373.765 169.776 373.765H318.435C325.006 373.765 331.308 371.155 335.955 366.508C340.601 361.862 343.212 355.56 343.212 348.989M293.659 150.777H318.435C325.006 150.777 331.308 153.387 335.955 158.034C340.601 162.68 343.212 168.982 343.212 175.553V200.33M231.718 274.659H355.6" stroke="white" stroke-width="26" stroke-linecap="round" stroke-linejoin="round"/>
<path d="M306.047 225.105L355.6 274.658L306.047 324.211" stroke="white" stroke-width="26" stroke-linecap="round" stroke-linejoin="round"/>
</svg>
